<svg width="67" height="69" viewBox="0 0 67 69" fill="none" xmlns="http://www.w3.org/2000/svg">
<g id="hospital logo">
<g id="Group">
<path id="Vector" d="M37.9564 28.9156L37.9564 28.9156V28.9072V24.1635C37.9564 23.644 38.3614 23.2484 38.8305 23.2484H43.4367C43.9058 23.2484 44.3107 23.644 44.3107 24.1635V28.9072C44.3107 29.4267 43.9058 29.8223 43.4367 29.8223H38.8305C38.3438 29.8223 37.9479 29.4239 37.9564 28.9156ZM28.7239 41.1831L28.7239 41.183H28.715H24.1088C23.6397 41.183 23.2348 40.7874 23.2348 40.268V35.5242C23.2348 35.0048 23.6397 34.6092 24.1088 34.6092H28.715C29.1841 34.6092 29.5891 35.0048 29.5891 35.5242V40.268C29.5891 40.8062 29.1812 41.1912 28.7239 41.1831ZM37.9564 40.2898H37.9564V40.2814V35.5377C37.9564 35.0182 38.3614 34.6227 38.8305 34.6227H43.4367C43.9058 34.6227 44.3107 35.0182 44.3107 35.5377V40.2814C44.3107 40.8009 43.9058 41.1965 43.4367 41.1965H38.8305C38.3438 41.1965 37.9479 40.7981 37.9564 40.2898ZM59.0324 56.3859V60.1445H8.5V56.3859C8.5 55.8665 8.90494 55.4709 9.37402 55.4709H11.6117H12.1117V54.9709V10.067C12.1117 9.01435 13.0698 8.07383 14.3729 8.07383H24.5537H25.0537V7.57383V2.84355C25.0537 1.54088 26.0752 0.5 27.3148 0.5H40.1914C41.421 0.5 42.4525 1.53054 42.4525 2.84355V7.58731V8.08731H42.9525H53.1334C54.425 8.08731 55.3945 9.02929 55.3945 10.0805V54.9709V55.4709H55.8945H58.1322V55.471L58.1408 55.4708C58.6307 55.4624 59.0324 55.8543 59.0324 56.3859ZM16.6471 54.8361V55.3361H17.1471H30.0891H30.5891V54.8361V46.8984C30.5891 46.379 30.994 45.9834 31.4631 45.9834H36.0693C36.5384 45.9834 36.9434 46.379 36.9434 46.8984V54.8361V55.3361H37.4434H50.3853H50.8853V54.8361V13.2609V12.7609H50.3853H42.9656H42.4656V13.2609V16.1045C42.4656 17.4072 41.4441 18.448 40.2045 18.448H27.3279C26.0983 18.448 25.0668 17.4175 25.0668 16.1045V13.2609V12.7609H24.5668H17.1471H16.6471V13.2609V54.8361ZM23.2217 28.9072V24.1635C23.2217 23.644 23.6266 23.2484 24.0957 23.2484H28.702C29.171 23.2484 29.576 23.644 29.576 24.1635V28.9072C29.576 29.4267 29.171 29.8223 28.702 29.8223H24.0957C23.6266 29.8223 23.2217 29.4267 23.2217 28.9072ZM38.5949 7.07383H36.0982V4.50117C36.0982 3.84818 35.5741 3.28691 34.9047 3.28691H32.6016C31.9322 3.28691 31.408 3.84818 31.408 4.50117V7.08731H28.9113C28.2419 7.08731 27.7178 7.64856 27.7178 8.30156V10.6734C27.7178 11.3264 28.2419 11.8877 28.9113 11.8877H31.408V14.4738C31.408 15.1268 31.9322 15.6881 32.6016 15.6881H34.9047C35.5741 15.6881 36.0982 15.1268 36.0982 14.4738V11.8877H38.5949C39.2643 11.8877 39.7885 11.3264 39.7885 10.6734V8.28809C39.7885 7.63509 39.2643 7.07383 38.5949 7.07383Z" fill="white" stroke="white"/>
</g>
</g>
</svg>
